# xmcd CD database file generated by OrangeCD 5.1
#
# Track frame offsets:
#	150
#	14810
#	29370
#	51407
#	68252
#	83340
#	98705
#	111947
#	128182
#	142610
#	160317
#	178700
#
# Disc length: 2656 seconds
#
# Revision: 3
# Processed by: cddbd v1.5PL3 Copyright (c) Steve Scherf et al.
# Submitted via: OrangeCD 5.1
#
DISCID=940a5e0c
DTITLE=Bill Wyman and The Rhythm Kings - Struttin' Our Stuff
DYEAR=1998
DGENRE=Rock and Roll
TTITLE0=Green River
TTITLE1=Walking On My Own
TTITLE2=Melody
TTITLE3=Stuff (Can't Get Enough)
TTITLE4=Bad To Be Alone
TTITLE5=I'm Mad
TTITLE6=Down In The Bottom
TTITLE7=Motorvatin' Mama
TTITLE8=Jitterbug Boogie
TTITLE9=Going Crazy Overnight
TTITLE10=Hole In My Soul
TTITLE11=Tobacco Road
EXTD=YEAR: 1998
EXTT0=
EXTT1=
EXTT2=
EXTT3=
EXTT4=
EXTT5=
EXTT6=
EXTT7=
EXTT8=
EXTT9=
EXTT10=
EXTT11=
PLAYORDER=
